<?xml version="1.0" encoding="UTF-8" standalone="no"?>
<svg x="0px" y="0px" viewBox="0 0 32 32" width="32" height="32" xml:space="preserve" xmlns="http://www.w3.org/2000/svg">
<path d="m 6.208831,5.623542 c -0.9420727,0 -1.7088321,0.8416918 -1.7088321,1.876605 v 16.673601 c 0,0.674621 0.2753349,1.300481 0.7540351,1.719201 0.00235,0.002 0.00424,0.0045 0.0066,0.0066 l 9.41e-4,-9.65e-4 c 0.0065,0.0058 0.013222,0.01126 0.019794,0.01697 0.1329557,0.125912 0.2830097,0.229518 0.4495935,0.306327 0.2205552,0.101794 0.4642026,0.154577 0.6918272,0.154577 0.025449,0 0.050426,-4.83e-4 0.075404,-0.0019 h 15.0901273 0.295017 c 0.755086,0 1.433959,-0.455831 1.772925,-1.189491 0.08424,-0.179349 0.145014,-0.36223 0.180968,-0.542905 l 0.01508,-0.04996 v -0.0047 c 1.042925,-3.22185 2.078781,-6.439696 3.116993,-9.663903 l 0.447708,-1.390252 c 0.141853,-0.402702 0.100381,-0.807053 -0.113105,-1.110316 -0.202647,-0.288419 -0.541021,-0.453364 -0.925579,-0.453364 l -2.497739,-0.01128 v -0.278993 c 0,-1.032321 -0.765817,-1.8718919 -1.70789,-1.8718919 h -6.466794 c -0.569767,0 -1.033028,-0.556336 -1.033028,-1.2403876 V 7.500147 c 0,-1.0349131 -0.765817,-1.876605 -1.707889,-1.876605 z m 0,0.965165 h 6.756155 c 0.410006,0 0.742724,0.4085929 0.742724,0.91144 v 1.0669595 c 0,1.2161176 0.89636,2.2055525 1.998193,2.2055525 h 6.466794 c 0.410007,0 0.742725,0.406472 0.742725,0.906727 v 0.273338 l -12.185208,-0.05561 c -0.71539,0 -1.445391,0.533716 -1.6994064,1.242273 L 5.4651639,23.155801 V 7.500147 c 0,-0.4943642 0.3407296,-0.91144 0.7436671,-0.91144 z m 4.519498,6.273572 15.647171,0.07258 c 0.03252,0 0.111222,0.0045 0.139497,0.0443 0.02262,0.03275 0.0344,0.114048 -0.0094,0.236579 l -0.455249,1.411931 c -1.045752,3.248006 -2.089149,6.490121 -3.139614,9.735536 l -0.01697,0.05749 c -0.0022,0.0064 -0.0044,0.01249 -0.0066,0.01885 -0.03134,0.09279 -0.06096,0.18465 -0.09049,0.277108 -0.0047,0.01463 -0.0095,0.02962 -0.01414,0.0443 -9.1e-5,2.85e-4 9e-5,6.75e-4 0,9.65e-4 -0.0051,0.0068 -0.01078,0.01303 -0.01602,0.01979 -0.02715,0.0351 -0.05583,0.06906 -0.08577,0.101795 -0.0026,0.0028 -0.005,0.0057 -0.0075,0.0085 -0.0018,0.0019 -0.0038,0.0037 -0.0057,0.0057 -0.03688,0.03937 -0.07538,0.07668 -0.115933,0.112162 -0.03835,0.03356 -0.07845,0.06544 -0.119703,0.0952 -3.57e-4,2.57e-4 -5.79e-4,6.75e-4 -9.65e-4,9.65e-4 -0.0091,0.0065 -0.01813,0.0125 -0.02733,0.01885 -0.0032,0.0022 -0.0062,0.0044 -0.0094,0.0066 -0.03858,0.02619 -0.07814,0.05087 -0.118761,0.07352 -0.06724,0.03741 -0.13364,0.067 -0.197934,0.09237 -0.0035,0.0014 -0.0068,0.0033 -0.01037,0.0047 -0.05775,0.02232 -0.113069,0.03939 -0.165888,0.05373 -0.01678,0.0045 -0.03271,0.0084 -0.04901,0.01225 -0.03679,0.0088 -0.07184,0.01611 -0.104622,0.02168 -0.01289,0.0022 -0.02622,0.0048 -0.03865,0.0066 -0.02665,0.0039 -0.05208,0.0062 -0.07635,0.0085 -0.01994,0.0019 -0.03842,0.0036 -0.05655,0.0047 -3.14e-4,-2e-6 -6.27e-4,1e-6 -9.65e-4,0 -4.94288,-0.0186 -9.894669,-0.04102 -14.8422389,-0.06409 L 6.162635,25.34264 C 6.080875,25.30827 6.00783,25.26217 5.9411835,25.208738 c -0.00451,-0.0043 -0.00973,-0.0078 -0.014138,-0.01225 -0.0023,-0.0031 -0.00443,-0.0063 -0.0066,-0.0094 -0.02479,-0.03588 -0.044173,-0.07222 -0.05561,-0.106507 -0.013392,-0.04036 -0.019962,-0.0782 -0.022621,-0.105565 l 4.0972383,-11.51129 c 0.1149902,-0.3207 0.4849392,-0.601343 0.7889092,-0.601343 z"
style="fill:#119da4" />
</svg>
