<?xml version="1.0" encoding="UTF-8" standalone="no"?>
<svg x="0px" y="0px" viewBox="0 0 54 54" width="32" height="32" xml:space="preserve" xmlns="http://www.w3.org/2000/svg">
  <path
   style="fill:#119da4"
   d="m 24.741905,9.6990895 c -9.531942,0 -17.2868237,7.7547315 -17.2868237,17.2868215 0,9.531946 7.7548817,17.286825 17.2868237,17.286825 v -4.321634 c -7.148957,0 -12.965185,-5.816232 -12.965185,-12.965191 0,-7.148959 5.816228,-12.965187 12.965185,-12.965187 z m 21.608462,0 c -9.531947,0 -17.286824,7.7547315 -17.286824,17.2868215 0,9.531946 7.754877,17.286825 17.286824,17.286825 v -4.321634 c -6.41283,0 -11.75226,-4.680376 -12.784138,-10.804374 H 46.350367 V 24.825094 H 33.566229 c 1.031878,-6.123995 6.371454,-10.80437 12.784138,-10.80437 z"
   id="path2" />
</svg>
