<?xml version="1.0" encoding="UTF-8" standalone="no"?>
<svg x="0px" y="0px" viewBox="0 0 32 32" width="32" height="32" xml:space="preserve" xmlns="http://www.w3.org/2000/svg">
<path
     d="m 12.645833,4.5 c -0.264618,0 -0.479166,0.2143148 -0.479166,0.4791667 0,0.2648519 0.214548,0.4791666 0.479166,0.4791666 H 13.125 v 6.2956137 c 0,1.915263 -0.632884,3.81368 -1.781901,5.345703 -0.01193,0.01591 -0.02293,0.03229 -0.03276,0.0496 l -4.5717328,8.005454 c -0.321706,0.448751 -0.368499,1.029459 -0.120727,1.525472 C 6.8705642,27.185547 7.3789772,27.5 7.9440102,27.5 H 24.05599 c 0.565032,0 1.073445,-0.314453 1.326131,-0.819824 0.247772,-0.496013 0.200978,-1.076721 -0.120728,-1.525472 l -4.571737,-8.005452 c -0.0098,-0.01732 -0.02082,-0.0337 -0.03276,-0.0496 -1.149017,-1.532023 -1.781901,-3.43044 -1.781901,-5.345703 V 5.4583333 h 0.479167 c 0.264617,0 0.479166,-0.2143147 0.479166,-0.4791666 C 19.833333,4.7143148 19.618784,4.5 19.354167,4.5 h -0.958334 -4.791666 z m 1.4375,0.9583333 h 3.833334 v 6.2956137 c 0,2.11086 0.694651,4.203939 1.955973,5.896932 l 0.496013,0.868489 c -2.883565,0.468568 -5.853741,0.468568 -8.737306,0 l 0.496013,-0.868489 c 1.261322,-1.692993 1.955973,-3.786072 1.955973,-5.896932 z M 11.125977,19.404704 c 1.606621,0.282998 3.244031,0.427694 4.874023,0.427694 1.629773,0 3.267402,-0.144696 4.874023,-0.427694 l 3.568482,6.24882 c 0.0098,0.01732 0.02083,0.03369 0.03276,0.0496 0.121664,0.162374 0.140381,0.367797 0.0496,0.549357 -0.09055,0.181559 -0.266022,0.289185 -0.468872,0.289185 H 7.9440102 c -0.20285,0 -0.378326,-0.107626 -0.468872,-0.289185 -0.09078,-0.18156 -0.07206,-0.386983 0.0496,-0.549357 0.01193,-0.01591 0.02293,-0.03229 0.03276,-0.0496 z"
     style="fill:#119da4" />
</svg>
