<?xml version="1.0" encoding="UTF-8" standalone="no"?>
<svg x="0px" y="0px" viewBox="0 0 32 32" width="32" height="32" xml:space="preserve" xmlns="http://www.w3.org/2000/svg">
<path
    d="M 27.293368,26.295906 20.601279,19.603391 C 23.684139,16.006915 23.520724,10.568453 20.112165,7.170402 18.385164,5.448655 16.090589,4.5 13.651226,4.5 c -2.45037,0 -4.7522837,0.955429 -6.4823876,2.690724 -1.7255886,1.730497 -2.6736182,4.030863 -2.6688202,6.476309 0.00452,2.445445 0.9607301,4.742143 2.6919635,6.46643 1.7258706,1.722876 4.0198823,2.671531 6.4592443,2.671531 2.208777,0 4.295345,-0.779021 5.952915,-2.203554 l 6.691524,6.691951 C 26.433396,27.43113 26.614028,27.5 26.794658,27.5 c 0.18063,0 0.360979,-0.06887 0.498993,-0.206609 0.275179,-0.275197 0.275179,-0.721723 -2.83e-4,-0.997485 z M 8.1882733,19.134286 C 6.7237528,17.675599 5.9145832,15.732848 5.9111964,13.664492 5.907246,11.596138 6.7087943,9.6505641 8.1682353,8.1870791 9.6316263,6.719642 11.578487,5.911268 13.651226,5.911268 c 2.063143,0 4.003795,0.802165 5.464647,2.2585931 3.022179,3.0133399 3.030363,7.9239879 0.01863,10.9472069 -1.463392,1.468001 -3.410817,2.276658 -5.483556,2.276658 -2.062578,2.82e-4 -4.0023837,-0.801883 -5.4626707,-2.25944 z"
    style="fill:#119da4" />
</svg>
