<?xml version="1.0" encoding="UTF-8" standalone="no"?>
<!-- Generator: Adobe Illustrator 20.0.0, SVG Export Plug-In . SVG Version: 6.00 Build 0)  -->

<svg
   version="1.1"
   id="Layer_1"
   x="0px"
   y="0px"
   viewBox="0 0 70 70"
   style="enable-background:new 0 0 70 70;"
   xml:space="preserve"
   sodipodi:docname="iso.svg"
   inkscape:version="1.1 (c68e22c387, 2021-05-23)"
   xmlns:inkscape="http://www.inkscape.org/namespaces/inkscape"
   xmlns:sodipodi="http://sodipodi.sourceforge.net/DTD/sodipodi-0.dtd"
   xmlns="http://www.w3.org/2000/svg"
   xmlns:svg="http://www.w3.org/2000/svg"><defs
   id="defs11"></defs><sodipodi:namedview
   id="namedview9"
   pagecolor="#ffffff"
   bordercolor="#666666"
   borderopacity="1.0"
   inkscape:pageshadow="2"
   inkscape:pageopacity="0.0"
   inkscape:pagecheckerboard="0"
   showgrid="false"
   inkscape:zoom="11.971429"
   inkscape:cx="34.958234"
   inkscape:cy="35.041766"
   inkscape:window-width="1920"
   inkscape:window-height="1001"
   inkscape:window-x="-9"
   inkscape:window-y="-9"
   inkscape:window-maximized="1"
   inkscape:current-layer="Layer_1" />
<style
   type="text/css"
   id="style2"></style><path
   id="path4"
   class="st0"
   d="m 55.988281,23.074219 c -2.7875,-0.075 -5.588672,0.526172 -7.888672,1.826172 -2.4,1.2 -4.099609,3.798828 -4.599609,6.298828 -0.9,4.2 -0.700391,9.20039 2.599609,12.40039 3.8,3.4 9.301172,4.101172 14.201172,2.701172 0.3,0 0.9,-0.3 1.5,-0.5 h 0.09961 c 1.5,-0.7 2.999609,-1.601562 4.099609,-3.101562 2.5,-3.7 2.699219,-9.098828 1.199219,-13.298828 -0.7,-1.6 -1.898438,-2.99961 -3.398438,-4.09961 -2.25,-1.4 -5.025,-2.151562 -7.8125,-2.226562 z m -27.08789,0.138672 c -2.175,0.0625 -4.3,0.636718 -6,1.886718 -2.2,1.6 -2.800782,4.5 -2.300782,7 0.4,2.4 2.7,4.2 5,5 3,1.1 6.201172,1.900782 9.201172,2.800782 0.3,0.1 0.699219,0.398828 0.699219,0.798828 l -0.900391,0.601562 c -3.2,0.8 -6.60039,0.298828 -8.90039,-2.201172 C 25.399221,38.799377 25.3,38.4 25,38 h -4.599609 c -0.1,2.7 -0.1,5.8 0,8.5 H 25.5 l 0.09961,-1.599609 c 0.5,0.3 1.200782,0.50039 1.800782,0.90039 3.5,1.5 8.1,1.8 11.5,0 2.6,-1.4 3.9,-4.1 3.5,-7 -0.4,-2.8 -3.100782,-5.401562 -5.800782,-6.101562 L 28.400391,30.300781 27.900391,30 C 27.600391,29.7 27.5,29.499609 27.5,29.099609 c 0.7,-1.1 2.199219,-0.799218 3.199219,-0.699218 2.4,0.3 4.901172,1.099218 6.201172,3.199218 h 4.90039 c 0.1,-2.7 0,-5.098828 0,-7.798828 h -4.90039 c -0.1,0.4 3.9e-4,0.898438 -0.09961,1.398438 l -1.601562,-0.798828 c -1.9,-0.8 -4.123828,-1.25 -6.298828,-1.1875 z M 4,23.5 v 5.699219 c 1.2,0 2.3003906,0.0016 3.4003906,0.101562 V 40.599609 41 L 4,41.099609 c -0.1,1.9 -0.1,3.6 0,5.5 H 19 V 41 c -1.1,-0.1 -2.4,4.03e-4 -3.5,-0.09961 V 29.30078 l 0.09961,-0.101562 H 19 C 19,27.299231 19.1,25.3 19,23.5 H 6.0996094 Z m 51.099609,5.099609 c 1.4,0 2.600391,0.101172 3.400391,1.201172 C 59,30.600781 59,31.6 59,32.5 c 0.3,2.2 0.499597,4.500781 0.09961,6.300781 -0.1,0.8 -0.699609,1.598438 -1.599609,1.898438 -1.4,0.5 -3.2,0.401172 -4.5,-0.298828 -1.1,-0.7 -1.200391,-1.99961 -1.400391,-3.09961 -0.1,-2.3 -0.299609,-4.70039 0.400391,-6.90039 0.5,-1.4 1.899621,-1.600782 3.099608,-1.800782 z"
   style="fill:#119da4;fill-opacity:1" /></svg>
