<?xml version="1.0" encoding="UTF-8" standalone="no"?>
<svg x="0px" y="0px" viewBox="0 0 32 32" width="32" height="32" xml:space="preserve" xmlns="http://www.w3.org/2000/svg">
<path
     d="M 7.854167,4.5 C 7.589315,4.5 7.375,4.7145487 7.375,4.9791667 V 27.020833 C 7.375,27.285451 7.589315,27.5 7.854167,27.5 H 24.145833 C 24.410685,27.5 24.625,27.285451 24.625,27.020833 V 9.4601235 c 0,-0.00158 -9.1e-4,-0.00307 -9.58e-4,-0.0047 -3.07e-4,-0.029828 -0.0026,-0.059771 -0.0084,-0.088908 -3.91e-4,-0.00196 -0.0014,-0.00369 -0.0019,-0.00562 -0.0061,-0.028319 -0.01415,-0.056428 -0.02527,-0.083293 -6.23e-4,-0.00153 -0.0012,-0.00316 -0.0019,-0.0047 -0.0098,-0.023029 -0.02211,-0.045027 -0.03556,-0.066447 -0.0044,-0.00707 -0.0092,-0.013743 -0.01404,-0.02059 -0.01574,-0.022358 -0.03261,-0.043877 -0.05241,-0.06364 L 20.002726,4.6403809 c -0.02041,-0.020377 -0.04238,-0.038235 -0.06551,-0.054281 -0.0075,-0.00522 -0.01563,-0.00927 -0.0234,-0.014038 -0.01644,-0.010067 -0.03315,-0.019192 -0.05054,-0.02714 -0.0091,-0.00416 -0.01783,-0.00858 -0.02714,-0.012167 -0.02522,-0.00967 -0.05127,-0.018106 -0.07768,-0.023397 0,0 -9.58e-4,0 -9.58e-4,0 -0.02643,-0.00524 -0.05345,-0.00767 -0.08048,-0.00842 C 19.672658,4.5008156 19.668339,4.5 19.66394,4.5 Z m 0.479166,0.9583333 h 10.851441 v 4.0017902 c 0,0.2646183 0.214315,0.4791666 0.479166,0.4791666 h 4.002727 V 26.541667 H 8.333333 Z m 11.809774,0.6775716 2.845052,2.8450519 H 20.143107 Z M 10.25,13.125 c -0.264852,0 -0.479167,0.214549 -0.479167,0.479167 0,0.264618 0.214315,0.479166 0.479167,0.479166 h 11.5 c 0.264852,0 0.479167,-0.214548 0.479167,-0.479166 0,-0.264618 -0.214315,-0.479167 -0.479167,-0.479167 z m 0,2.875 c -0.264852,0 -0.479167,0.214549 -0.479167,0.479167 0,0.264618 0.214315,0.479166 0.479167,0.479166 h 11.5 c 0.264852,0 0.479167,-0.214548 0.479167,-0.479166 C 22.229167,16.214549 22.014852,16 21.75,16 Z m 0,3.354167 c -0.264852,0 -0.479167,0.214548 -0.479167,0.479166 0,0.264618 0.214315,0.479167 0.479167,0.479167 h 11.5 c 0.264852,0 0.479167,-0.214549 0.479167,-0.479167 0,-0.264618 -0.214315,-0.479166 -0.479167,-0.479166 z m 0,3.354166 c -0.264852,0 -0.479167,0.214549 -0.479167,0.479167 0,0.264618 0.214315,0.479167 0.479167,0.479167 h 11.5 c 0.264852,0 0.479167,-0.214549 0.479167,-0.479167 0,-0.264618 -0.214315,-0.479167 -0.479167,-0.479167 z"
     style="fill:#119da4" />
</svg>
